name Visual3d_SIMM_input.mot
datacolumns 42
datarows 9
range 0.860000 0.940000
endheader
time	pelvis_tx	pelvis_ty	pelvis_tz	pelvis_tilt	pelvis_list	pelvis_rotation	hip_flexion_r	hip_adduction_r	hip_rotation_r	knee_angle_r	ankle_angle_r	subtalar_angle_r	mtp_angle_r	hip_flexion_l	hip_adduction_l	hip_rotation_l	knee_angle_l	ankle_angle_l	subtalar_angle_l	mtp_angle_l	lumbar_extension	lumbar_bending	lumbar_rotation	ground_force_vx	ground_force_vy	ground_force_vz	ground_force_px	ground_force_py	ground_force_pz	ground_force_vx	ground_force_vy	ground_force_vz	ground_force_px	ground_force_py	ground_force_pz	ground_torque_x	ground_torque_y	ground_torque_z	ground_torque_x	ground_torque_y	ground_torque_z
0.860000	-0.113522	0.706268	-0.252285	7.022651	3.013819	174.388199	28.046089	6.689994	-16.204754	-13.378909	11.705702	0.000000	0.000000	-10.641200	-2.435825	-9.830373	-23.437058	4.056368	-0.000000	0.000000	20.916085	2.350629	-7.446555	22.769499	137.124619	-0.492593	-0.206374	-0.003663	-0.294078	-43.157383	126.431084	-7.662267	0.183941	-0.004557	-0.184391	-0.000884	0.842361	-0.001833	-0.005257	0.439512	0.008784
0.870000	-0.126263	0.705748	-0.254082	6.564085	3.773476	174.348892	27.597996	7.763687	-14.297757	-15.395520	11.409421	-0.000000	0.000000	-10.238941	-3.542727	-9.776089	-26.473306	1.688947	-0.000000	0.000000	20.783286	3.113761	-7.503070	28.479269	167.859451	1.119443	-0.209487	-0.003920	-0.294044	-36.055294	100.007927	-5.982288	0.181553	-0.005209	-0.185299	-0.000981	0.934565	-0.002034	-0.003174	0.265348	0.005303
0.880000	-0.138961	0.705337	-0.255859	6.101975	4.515285	174.369308	27.118378	8.819427	-12.456402	-17.376701	11.188624	-0.000000	0.000000	-9.718744	-4.587483	-9.492535	-29.724840	-0.552625	-0.000000	0.000000	20.643526	3.843875	-7.572300	33.752518	196.682724	3.178817	-0.213230	-0.003973	-0.294716	-27.864096	74.493088	-4.148954	0.179867	-0.005450	-0.186499	-0.001008	0.960494	-0.002090	-0.000999	0.083523	0.001669
0.890000	-0.151527	0.705102	-0.257582	5.654144	5.201841	174.469910	26.582087	9.805175	-10.772487	-19.235915	11.088103	-0.000000	0.000000	-9.009998	-5.508336	-8.913467	-33.175144	-2.522524	-0.000000	0.000000	20.504283	4.497295	-7.646653	38.087746	223.356201	5.311669	-0.217339	-0.003846	-0.295964	-19.562714	51.767056	-2.419828	0.178357	-0.005389	-0.188054	-0.000966	0.920176	-0.002002	0.000989	-0.082664	-0.001652
0.900000	-0.163898	0.705089	-0.259221	5.234671	5.810000	174.661636	25.965043	10.685181	-9.319735	-20.893774	11.142869	-0.000000	0.000000	-8.067284	-6.271273	-8.040831	-36.794571	-4.113672	-0.000000	0.000000	20.375402	5.047574	-7.715337	41.031078	247.138779	7.244612	-0.221602	-0.003583	-0.297583	-12.141966	33.059048	-1.006679	0.176488	-0.005169	-0.189964	-0.000865	0.823839	-0.001793	0.002573	-0.215121	-0.004299
0.910000	-0.176033	0.705331	-0.260760	4.851214	6.326299	174.945374	25.244202	11.435162	-8.149806	-22.283637	11.370358	-0.000000	0.000000	-6.876868	-6.861188	-6.926556	-40.531995	-5.255349	-0.000000	0.000000	20.264126	5.481113	-7.765765	42.358276	266.933594	8.854996	-0.225928	-0.003242	-0.299374	0.000000	0.000000	0.000000	0.000000	0.000000	0.000000	-0.000719	0.684459	-0.001489	0.000000	0.000000	0.000000
0.920000	-0.187915	0.705852	-0.262192	4.506774	6.741575	175.311295	24.401959	12.037778	-7.290254	-23.357674	11.766299	-0.000000	0.000000	-5.452600	-7.273141	-5.651863	-44.314547	-5.910937	-0.000000	0.000000	20.174313	5.791726	-7.783317	42.152763	281.697479	10.095369	-0.230336	-0.002873	-0.301201	0.000000	0.000000	0.000000	0.000000	0.000000	0.000000	-0.000540	0.514087	-0.001119	0.000000	0.000000	0.000000
0.930000	-0.199538	0.706665	-0.263530	4.203237	7.046600	175.737823	23.431396	12.480609	-6.741009	-24.091267	12.305482	-0.000000	0.000000	-3.826773	-7.506612	-4.313100	-48.053127	-6.078555	-0.000000	0.000000	20.108055	5.976094	-7.749926	40.726913	290.704926	11.004598	-0.234924	-0.002515	-0.303019	0.000000	0.000000	0.000000	0.000000	0.000000	0.000000	-0.000347	0.330315	-0.000719	0.000000	0.000000	0.000000
0.940000	-0.210909	0.707770	-0.264805	3.941736	7.229730	176.191528	22.336254	12.755955	-6.471014	-24.483762	12.947069	-0.000000	0.000000	-2.043442	-7.562245	-3.011687	-51.650478	-5.790783	-0.000000	0.000000	20.064873	6.030921	-7.642144	38.491520	293.716919	11.723624	-0.239837	-0.002186	-0.304880	0.000000	0.000000	0.000000	0.000000	0.000000	0.000000	-0.000158	0.150325	-0.000327	0.000000	0.000000	0.000000
